<!--?xml version="1.0" standalone="no"?-->
              <svg id="sw-js-blob-svg" viewBox="0 0 100 100" xmlns="http://www.w3.org/2000/svg" version="1.1">
                    <defs> 
                        <linearGradient id="sw-gradient" x1="0" x2="1" y1="1" y2="0">
                            <stop id="stop1" stop-color="rgba(68.558, 167.736, 181.076, 1)" offset="0%"></stop>
                            <stop id="stop2" stop-color="rgba(31, 232.369, 251, 1)" offset="100%"></stop>
                        </linearGradient>
                    </defs>
                <path fill="url(#sw-gradient)" d="M12.8,-19C16.2,-12.3,18.4,-8,22.6,-1.5C26.7,5,32.8,13.7,31,18.9C29.2,24,19.5,25.6,10.6,28.6C1.7,31.7,-6.6,36.1,-14.3,35.1C-22,34.1,-29.3,27.6,-32.2,19.9C-35.2,12.1,-34,3.2,-30.7,-3.7C-27.4,-10.6,-22.2,-15.4,-16.7,-21.6C-11.3,-27.9,-5.6,-35.7,-0.5,-35.1C4.7,-34.5,9.3,-25.6,12.8,-19Z" width="100%" height="100%" transform="translate(50 50)" stroke-width="0" style="transition: all 0.3s ease 0s;" stroke="url(#sw-gradient)"></path>
              </svg>